<?xml version="1.0" encoding="UTF-8" standalone="no"?>
<svg
   width="285.49374pt"
   height="246.9986pt"
   viewBox="0 0 285.49375 246.99859"
   version="1.1"
   id="svg73280"
   sodipodi:docname="holo_hex.svg"
   inkscape:version="1.1.2 (0a00cf5339, 2022-02-04)"
   xmlns:inkscape="http://www.inkscape.org/namespaces/inkscape"
   xmlns:sodipodi="http://sodipodi.sourceforge.net/DTD/sodipodi-0.dtd"
   xmlns:xlink="http://www.w3.org/1999/xlink"
   xmlns="http://www.w3.org/2000/svg"
   xmlns:svg="http://www.w3.org/2000/svg"
   xmlns:rdf="http://www.w3.org/1999/02/22-rdf-syntax-ns#"
   xmlns:cc="http://creativecommons.org/ns#"
   xmlns:dc="http://purl.org/dc/elements/1.1/">
  <sodipodi:namedview
     id="namedview73282"
     pagecolor="#ffffff"
     bordercolor="#666666"
     borderopacity="1.0"
     inkscape:pageshadow="2"
     inkscape:pageopacity="0.0"
     inkscape:pagecheckerboard="0"
     inkscape:document-units="pt"
     showgrid="false"
     inkscape:zoom="0.36835622"
     inkscape:cx="-544.31007"
     inkscape:cy="643.39894"
     inkscape:window-width="1920"
     inkscape:window-height="1038"
     inkscape:window-x="0"
     inkscape:window-y="25"
     inkscape:window-maximized="1"
     inkscape:current-layer="svg73280"
     fit-margin-top="0"
     fit-margin-left="0"
     fit-margin-right="0"
     fit-margin-bottom="0" />
  <metadata
     id="metadata72843">
    <rdf:RDF>
      <cc:Work>
        <dc:type
           rdf:resource="http://purl.org/dc/dcmitype/StillImage" />
        <dc:date>2022-11-01T00:42:28.339387</dc:date>
        <dc:format>image/svg+xml</dc:format>
        <dc:creator>
          <cc:Agent>
            <dc:title>Matplotlib v3.5.1, https://matplotlib.org/</dc:title>
          </cc:Agent>
        </dc:creator>
      </cc:Work>
    </rdf:RDF>
  </metadata>
  <defs
     id="defs72847">
    <pattern
       inkscape:collect="always"
       xlink:href="#Strips1_1white"
       id="pattern75513"
       patternTransform="matrix(10,0,0,10,-116.23356,-61.276501)" />
    <pattern
       inkscape:collect="always"
       patternUnits="userSpaceOnUse"
       width="2"
       height="1"
       patternTransform="translate(0,0) scale(10,10)"
       id="Strips1_1white"
       inkscape:stockid="Stripes 1:1 white"
       inkscape:isstock="true">
      <rect
         style="fill:white;stroke:none"
         x="0"
         y="-0.5"
         width="1"
         height="2"
         id="rect58626" />
    </pattern>
    <style
       type="text/css"
       id="style72845">*{stroke-linejoin: round; stroke-linecap: butt}</style>
  </defs>
  <g
     id="pane3d_1"
     transform="translate(-116.23356,-61.276501)">
    <g
       id="patch_3">
      <path
         d="M 121.84953,237.81705 218.4375,168.85942 217.54905,62.169479 116.49674,124.72506"
         style="opacity:0.5;fill:#f2f2f2;stroke:#f2f2f2;stroke-linejoin:miter"
         id="path72855" />
    </g>
  </g>
  <g
     id="pane3d_2"
     transform="translate(-116.23356,-61.276501)">
    <g
       id="patch_4">
      <path
         d="M 218.4375,168.85942 354.44625,213.92634 359.50472,103.0018 217.54905,62.169479"
         style="opacity:0.5;fill:#e6e6e6;stroke:#e6e6e6;stroke-linejoin:miter"
         id="path72859" />
    </g>
  </g>
  <g
     id="pane3d_3"
     transform="translate(-116.23356,-61.276501)">
    <g
       id="patch_5">
      <path
         d="M 121.84953,237.81705 264.30657,291.17151 354.44625,213.92634 218.4375,168.85942"
         style="opacity:0.5;fill:#ececec;stroke:#ececec;stroke-linejoin:miter"
         id="path72863" />
    </g>
  </g>
  <g
     id="axis3d_1"
     transform="translate(-116.23356,-61.276501)">
    <g
       id="line2d_1">
      <path
         d="m 121.84953,237.81705 142.45704,53.35446"
         style="fill:none;stroke:#000000;stroke-width:0.8;stroke-linecap:square"
         id="path72867" />
    </g>
    <g
       id="text_1">
      <!-- x -->
      <g
         transform="matrix(0.1,0,0,-0.1,169.89204,300.92662)"
         id="g72875">
        <defs
           id="defs72871">
          <path
             id="DejaVuSans-78"
             d="M 3513,3500 2247,1797 3578,0 H 2900 L 1881,1375 863,0 H 184 L 1544,1831 300,3500 h 678 l 928,-1247 928,1247 z"
             transform="scale(0.015625)" />
        </defs>
        <use
           xlink:href="#DejaVuSans-78"
           id="use72873"
           x="0"
           y="0"
           width="100%"
           height="100%" />
      </g>
    </g>
    <g
       id="Line3DCollection_1">
      <path
         d="M 138.3602,244.00079 234.26763,174.10478 234.03735,66.912195"
         style="fill:none;stroke:#b0b0b0;stroke-width:0.8"
         id="path72878" />
      <path
         d="m 164.37572,253.74439 94.79945,-71.38642 0.82341,-107.978252"
         style="fill:none;stroke:#b0b0b0;stroke-width:0.8"
         id="path72880" />
      <path
         d="M 190.97248,263.70568 284.5942,190.78065 286.51577,82.007159"
         style="fill:none;stroke:#b0b0b0;stroke-width:0.8"
         id="path72882" />
      <path
         d="m 218.17019,273.89204 92.37043,-74.51397 3.06636,-109.578358"
         style="fill:none;stroke:#b0b0b0;stroke-width:0.8"
         id="path72884" />
      <path
         d="m 245.98944,284.31119 91.04159,-76.15544 4.26003,-110.392954"
         style="fill:none;stroke:#b0b0b0;stroke-width:0.8"
         id="path72886" />
    </g>
    <g
       id="xtick_1">
      <g
         id="line2d_2">
        <path
           d="m 139.19292,243.39391 -2.50162,1.82315"
           style="fill:none;stroke:#000000;stroke-width:0.8;stroke-linecap:square"
           id="path72889" />
      </g>
      <g
         id="text_2">
        <!-- −1.0 -->
        <g
           transform="matrix(0.1,0,0,-0.1,117.91493,266.96882)"
           id="g72906">
          <defs
             id="defs72896">
            <path
               id="DejaVuSans-2212"
               d="M 678,2272 H 4684 V 1741 H 678 Z"
               transform="scale(0.015625)" />
            <path
               id="DejaVuSans-31"
               d="M 794,531 H 1825 V 4091 L 703,3866 v 575 l 1116,225 h 631 V 531 H 3481 V 0 H 794 Z"
               transform="scale(0.015625)" />
            <path
               id="DejaVuSans-2e"
               d="m 684,794 h 660 V 0 H 684 Z"
               transform="scale(0.015625)" />
            <path
               id="DejaVuSans-30"
               d="m 2034,4250 q -487,0 -733,-480 -245,-479 -245,-1442 0,-959 245,-1439 246,-480 733,-480 491,0 736,480 246,480 246,1439 0,963 -246,1442 -245,480 -736,480 z m 0,500 q 785,0 1199,-621 414,-620 414,-1801 0,-1178 -414,-1799 -414,-620 -1199,-620 -784,0 -1198,620 -414,621 -414,1799 0,1181 414,1801 414,621 1198,621 z"
               transform="scale(0.015625)" />
          </defs>
          <use
             xlink:href="#DejaVuSans-2212"
             id="use72898"
             x="0"
             y="0"
             width="100%"
             height="100%" />
          <use
             xlink:href="#DejaVuSans-31"
             x="83.789062"
             id="use72900"
             y="0"
             width="100%"
             height="100%" />
          <use
             xlink:href="#DejaVuSans-2e"
             x="147.41211"
             id="use72902"
             y="0"
             width="100%"
             height="100%" />
          <use
             xlink:href="#DejaVuSans-30"
             x="179.19922"
             id="use72904"
             y="0"
             width="100%"
             height="100%" />
        </g>
      </g>
    </g>
    <g
       id="xtick_2">
      <g
         id="line2d_3">
        <path
           d="m 165.19954,253.12403 -2.47491,1.86367"
           style="fill:none;stroke:#000000;stroke-width:0.8;stroke-linecap:square"
           id="path72910" />
      </g>
      <g
         id="text_3">
        <!-- −0.5 -->
        <g
           transform="matrix(0.1,0,0,-0.1,143.93112,276.91755)"
           id="g72924">
          <defs
             id="defs72914">
            <path
               id="DejaVuSans-35"
               d="M 691,4666 H 3169 V 4134 H 1269 V 2991 q 137,47 274,70 138,23 276,23 781,0 1237,-428 457,-428 457,-1159 Q 3513,744 3044,326 2575,-91 1722,-91 1428,-91 1123,-41 819,9 494,109 v 635 q 281,-153 581,-228 300,-75 634,-75 541,0 856,284 316,284 316,772 0,487 -316,771 -315,285 -856,285 -253,0 -505,-56 -251,-56 -513,-175 z"
               transform="scale(0.015625)" />
          </defs>
          <use
             xlink:href="#DejaVuSans-2212"
             id="use72916"
             x="0"
             y="0"
             width="100%"
             height="100%" />
          <use
             xlink:href="#DejaVuSans-30"
             x="83.789062"
             id="use72918"
             y="0"
             width="100%"
             height="100%" />
          <use
             xlink:href="#DejaVuSans-2e"
             x="147.41211"
             id="use72920"
             y="0"
             width="100%"
             height="100%" />
          <use
             xlink:href="#DejaVuSans-35"
             x="179.19922"
             id="use72922"
             y="0"
             width="100%"
             height="100%" />
        </g>
      </g>
    </g>
    <g
       id="xtick_3">
      <g
         id="line2d_4">
        <path
           d="m 191.78679,263.07139 -2.44637,1.90555"
           style="fill:none;stroke:#000000;stroke-width:0.8;stroke-linecap:square"
           id="path72928" />
      </g>
      <g
         id="text_4">
        <!-- 0.0 -->
        <g
           transform="matrix(0.1,0,0,-0.1,174.7205,287.08936)"
           id="g72937">
          <use
             xlink:href="#DejaVuSans-30"
             id="use72931"
             x="0"
             y="0"
             width="100%"
             height="100%" />
          <use
             xlink:href="#DejaVuSans-2e"
             x="63.623047"
             id="use72933"
             y="0"
             width="100%"
             height="100%" />
          <use
             xlink:href="#DejaVuSans-30"
             x="95.410156"
             id="use72935"
             y="0"
             width="100%"
             height="100%" />
        </g>
      </g>
    </g>
    <g
       id="xtick_4">
      <g
         id="line2d_5">
        <path
           d="m 218.97434,273.24335 -2.4159,1.94886"
           style="fill:none;stroke:#000000;stroke-width:0.8;stroke-linecap:square"
           id="path72941" />
      </g>
      <g
         id="text_5">
        <!-- 0.5 -->
        <g
           transform="matrix(0.1,0,0,-0.1,201.92323,297.49184)"
           id="g72950">
          <use
             xlink:href="#DejaVuSans-30"
             id="use72944"
             x="0"
             y="0"
             width="100%"
             height="100%" />
          <use
             xlink:href="#DejaVuSans-2e"
             x="63.623047"
             id="use72946"
             y="0"
             width="100%"
             height="100%" />
          <use
             xlink:href="#DejaVuSans-35"
             x="95.410156"
             id="use72948"
             y="0"
             width="100%"
             height="100%" />
        </g>
      </g>
    </g>
    <g
       id="xtick_5">
      <g
         id="line2d_6">
        <path
           d="m 246.78275,283.64759 -2.38338,1.99368"
           style="fill:none;stroke:#000000;stroke-width:0.8;stroke-linecap:square"
           id="path72954" />
      </g>
      <g
         id="text_6">
        <!-- 1.0 -->
        <g
           transform="matrix(0.1,0,0,-0.1,229.74992,308.13291)"
           id="g72963">
          <use
             xlink:href="#DejaVuSans-31"
             id="use72957"
             x="0"
             y="0"
             width="100%"
             height="100%" />
          <use
             xlink:href="#DejaVuSans-2e"
             x="63.623047"
             id="use72959"
             y="0"
             width="100%"
             height="100%" />
          <use
             xlink:href="#DejaVuSans-30"
             x="95.410156"
             id="use72961"
             y="0"
             width="100%"
             height="100%" />
        </g>
      </g>
    </g>
  </g>
  <g
     id="axis3d_2"
     transform="translate(-116.23356,-61.276501)">
    <g
       id="line2d_7">
      <path
         d="m 354.44625,213.92634 -90.13968,77.24517"
         style="fill:none;stroke:#000000;stroke-width:0.8;stroke-linecap:square"
         id="path72968" />
    </g>
    <g
       id="text_7">
      <!-- y -->
      <g
         transform="matrix(0.1,0,0,-0.1,334.44271,282.75171)"
         id="g72976">
        <defs
           id="defs72972">
          <path
             id="DejaVuSans-79"
             d="m 2059,-325 q -243,-625 -475,-815 -231,-191 -618,-191 H 506 v 481 h 338 q 237,0 368,113 132,112 291,531 L 1606,56 191,3500 H 800 L 1894,763 2988,3500 h 609 z"
             transform="scale(0.015625)" />
        </defs>
        <use
           xlink:href="#DejaVuSans-79"
           id="use72974"
           x="0"
           y="0"
           width="100%"
           height="100%" />
      </g>
    </g>
    <g
       id="Line3DCollection_2">
      <path
         d="m 136.88331,112.10492 4.3967,111.84001 141.22926,51.62779"
         style="fill:none;stroke:#b0b0b0;stroke-width:0.8"
         id="path72979" />
      <path
         d="m 156.47236,99.978487 3.50436,110.618193 140.01475,49.99467"
         style="fill:none;stroke:#b0b0b0;stroke-width:0.8"
         id="path72981" />
      <path
         d="m 175.43809,88.237912 2.66506,109.417658 138.80637,48.43786"
         style="fill:none;stroke:#b0b0b0;stroke-width:0.8"
         id="path72983" />
      <path
         d="M 193.80979,76.865071 195.685,185.10325 333.2903,232.05592"
         style="fill:none;stroke:#b0b0b0;stroke-width:0.8"
         id="path72985" />
      <path
         d="M 211.61492,65.842955 212.74645,172.92247 349.159,218.45724"
         style="fill:none;stroke:#b0b0b0;stroke-width:0.8"
         id="path72987" />
    </g>
    <g
       id="xtick_6">
      <g
         id="line2d_8">
        <path
           d="m 281.31234,275.13516 3.59425,1.31392"
           style="fill:none;stroke:#000000;stroke-width:0.8;stroke-linecap:square"
           id="path72990" />
      </g>
      <g
         id="text_8">
        <!-- −1.0 -->
        <g
           transform="matrix(0.1,0,0,-0.1,282.64212,296.94922)"
           id="g73001">
          <use
             xlink:href="#DejaVuSans-2212"
             id="use72993"
             x="0"
             y="0"
             width="100%"
             height="100%" />
          <use
             xlink:href="#DejaVuSans-31"
             x="83.789062"
             id="use72995"
             y="0"
             width="100%"
             height="100%" />
          <use
             xlink:href="#DejaVuSans-2e"
             x="147.41211"
             id="use72997"
             y="0"
             width="100%"
             height="100%" />
          <use
             xlink:href="#DejaVuSans-30"
             x="179.19922"
             id="use72999"
             y="0"
             width="100%"
             height="100%" />
        </g>
      </g>
    </g>
    <g
       id="xtick_7">
      <g
         id="line2d_9">
        <path
           d="m 298.80592,260.16803 3.56001,1.27116"
           style="fill:none;stroke:#000000;stroke-width:0.8;stroke-linecap:square"
           id="path73005" />
      </g>
      <g
         id="text_9">
        <!-- −0.5 -->
        <g
           transform="matrix(0.1,0,0,-0.1,299.94364,281.72376)"
           id="g73016">
          <use
             xlink:href="#DejaVuSans-2212"
             id="use73008"
             x="0"
             y="0"
             width="100%"
             height="100%" />
          <use
             xlink:href="#DejaVuSans-30"
             x="83.789062"
             id="use73010"
             y="0"
             width="100%"
             height="100%" />
          <use
             xlink:href="#DejaVuSans-2e"
             x="147.41211"
             id="use73012"
             y="0"
             width="100%"
             height="100%" />
          <use
             xlink:href="#DejaVuSans-35"
             x="179.19922"
             id="use73014"
             y="0"
             width="100%"
             height="100%" />
        </g>
      </g>
    </g>
    <g
       id="xtick_8">
      <g
         id="line2d_10">
        <path
           d="m 315.73524,245.68366 3.5261,1.23046"
           style="fill:none;stroke:#000000;stroke-width:0.8;stroke-linecap:square"
           id="path73020" />
      </g>
      <g
         id="text_10">
        <!-- 0.0 -->
        <g
           transform="matrix(0.1,0,0,-0.1,320.87603,266.9902)"
           id="g73029">
          <use
             xlink:href="#DejaVuSans-30"
             id="use73023"
             x="0"
             y="0"
             width="100%"
             height="100%" />
          <use
             xlink:href="#DejaVuSans-2e"
             x="63.623047"
             id="use73025"
             y="0"
             width="100%"
             height="100%" />
          <use
             xlink:href="#DejaVuSans-30"
             x="95.410156"
             id="use73027"
             y="0"
             width="100%"
             height="100%" />
        </g>
      </g>
    </g>
    <g
       id="xtick_9">
      <g
         id="line2d_11">
        <path
           d="m 332.12719,231.65906 3.49252,1.19169"
           style="fill:none;stroke:#000000;stroke-width:0.8;stroke-linecap:square"
           id="path73033" />
      </g>
      <g
         id="text_11">
        <!-- 0.5 -->
        <g
           transform="matrix(0.1,0,0,-0.1,337.08627,252.72508)"
           id="g73042">
          <use
             xlink:href="#DejaVuSans-30"
             id="use73036"
             x="0"
             y="0"
             width="100%"
             height="100%" />
          <use
             xlink:href="#DejaVuSans-2e"
             x="63.623047"
             id="use73038"
             y="0"
             width="100%"
             height="100%" />
          <use
             xlink:href="#DejaVuSans-35"
             x="95.410156"
             id="use73040"
             y="0"
             width="100%"
             height="100%" />
        </g>
      </g>
    </g>
    <g
       id="xtick_10">
      <g
         id="line2d_12">
        <path
           d="m 348.00694,218.07268 3.4593,1.15472"
           style="fill:none;stroke:#000000;stroke-width:0.8;stroke-linecap:square"
           id="path73046" />
      </g>
      <g
         id="text_12">
        <!-- 1.0 -->
        <g
           transform="matrix(0.1,0,0,-0.1,352.78919,238.9064)"
           id="g73055">
          <use
             xlink:href="#DejaVuSans-31"
             id="use73049"
             x="0"
             y="0"
             width="100%"
             height="100%" />
          <use
             xlink:href="#DejaVuSans-2e"
             x="63.623047"
             id="use73051"
             y="0"
             width="100%"
             height="100%" />
          <use
             xlink:href="#DejaVuSans-30"
             x="95.410156"
             id="use73053"
             y="0"
             width="100%"
             height="100%" />
        </g>
      </g>
    </g>
  </g>
  <g
     id="axis3d_3"
     transform="translate(-116.23356,-61.276501)">
    <g
       id="line2d_13">
      <path
         d="M 354.44625,213.92634 359.50472,103.0018"
         style="fill:none;stroke:#000000;stroke-width:0.8;stroke-linecap:square"
         id="path73060" />
    </g>
    <g
       id="text_13">
      <!-- theta -->
      <g
         transform="matrix(0.00455555,-0.09989618,-0.09989618,-0.00455555,400.54457,169.01308)"
         id="g73079">
        <defs
           id="defs73067">
          <path
             id="DejaVuSans-74"
             d="M 1172,4494 V 3500 H 2356 V 3053 H 1172 V 1153 q 0,-428 117,-550 117,-122 477,-122 h 590 V 0 H 1766 Q 1100,0 847,248 594,497 594,1153 V 3053 H 172 v 447 h 422 v 994 z"
             transform="scale(0.015625)" />
          <path
             id="DejaVuSans-68"
             d="M 3513,2113 V 0 h -575 v 2094 q 0,497 -194,743 -194,247 -581,247 -466,0 -735,-297 -269,-296 -269,-809 V 0 H 581 v 4863 h 578 V 2956 q 207,316 486,472 280,156 646,156 603,0 912,-373 310,-373 310,-1098 z"
             transform="scale(0.015625)" />
          <path
             id="DejaVuSans-65"
             d="M 3597,1894 V 1613 H 953 q 38,-594 358,-905 320,-311 892,-311 331,0 642,81 311,81 618,244 V 178 Q 3153,47 2828,-22 2503,-91 2169,-91 1331,-91 842,396 353,884 353,1716 q 0,859 464,1363 464,505 1252,505 706,0 1117,-455 411,-454 411,-1235 z m -575,169 q -6,471 -264,752 -258,282 -683,282 -481,0 -770,-272 -289,-272 -333,-766 z"
             transform="scale(0.015625)" />
          <path
             id="DejaVuSans-61"
             d="m 2194,1759 q -697,0 -966,-159 -269,-159 -269,-544 0,-306 202,-486 202,-179 548,-179 479,0 768,339 289,339 289,901 v 128 z m 1147,238 V 0 H 2766 V 531 Q 2569,213 2275,61 1981,-91 1556,-91 q -537,0 -855,302 -317,302 -317,808 0,590 395,890 396,300 1180,300 h 807 v 57 q 0,397 -261,614 -261,217 -733,217 -300,0 -585,-72 -284,-72 -546,-216 v 532 q 315,122 612,182 297,61 578,61 760,0 1135,-394 375,-393 375,-1193 z"
             transform="scale(0.015625)" />
        </defs>
        <use
           xlink:href="#DejaVuSans-74"
           id="use73069"
           x="0"
           y="0"
           width="100%"
           height="100%" />
        <use
           xlink:href="#DejaVuSans-68"
           x="39.208984"
           id="use73071"
           y="0"
           width="100%"
           height="100%" />
        <use
           xlink:href="#DejaVuSans-65"
           x="102.58789"
           id="use73073"
           y="0"
           width="100%"
           height="100%" />
        <use
           xlink:href="#DejaVuSans-74"
           x="164.11133"
           id="use73075"
           y="0"
           width="100%"
           height="100%" />
        <use
           xlink:href="#DejaVuSans-61"
           x="203.32031"
           id="use73077"
           y="0"
           width="100%"
           height="100%" />
      </g>
    </g>
    <g
       id="Line3DCollection_3">
      <path
         d="m 354.75538,207.14746 -136.37229,-44.82241 -96.8603,68.58869"
         style="fill:none;stroke:#b0b0b0;stroke-width:0.8"
         id="path73082" />
      <path
         d="M 355.61192,188.365 218.2324,144.22978 120.61722,211.78106"
         style="fill:none;stroke:#b0b0b0;stroke-width:0.8"
         id="path73084" />
      <path
         d="M 356.4813,169.30065 218.07958,125.87754 119.69766,192.35303"
         style="fill:none;stroke:#b0b0b0;stroke-width:0.8"
         id="path73086" />
      <path
         d="M 357.36384,149.94801 217.92456,107.26282 118.7638,172.62277"
         style="fill:none;stroke:#b0b0b0;stroke-width:0.8"
         id="path73088" />
      <path
         d="M 358.25982,130.30051 217.76732,88.379942 117.8153,152.58316"
         style="fill:none;stroke:#b0b0b0;stroke-width:0.8"
         id="path73090" />
      <path
         d="M 359.16956,110.35134 217.60779,69.22308 116.85181,132.22687"
         style="fill:none;stroke:#b0b0b0;stroke-width:0.8"
         id="path73092" />
    </g>
    <g
       id="xtick_11">
      <g
         id="line2d_14">
        <path
           d="m 353.60382,206.76897 3.4578,1.1365"
           style="fill:none;stroke:#000000;stroke-width:0.8;stroke-linecap:square"
           id="path73095" />
      </g>
      <g
         id="text_14">
        <!-- −1.0 -->
        <g
           transform="matrix(0.1,0,0,-0.1,361.39393,212.83223)"
           id="g73106">
          <use
             xlink:href="#DejaVuSans-2212"
             id="use73098"
             x="0"
             y="0"
             width="100%"
             height="100%" />
          <use
             xlink:href="#DejaVuSans-31"
             x="83.789062"
             id="use73100"
             y="0"
             width="100%"
             height="100%" />
          <use
             xlink:href="#DejaVuSans-2e"
             x="147.41211"
             id="use73102"
             y="0"
             width="100%"
             height="100%" />
          <use
             xlink:href="#DejaVuSans-30"
             x="179.19922"
             id="use73104"
             y="0"
             width="100%"
             height="100%" />
        </g>
      </g>
    </g>
    <g
       id="xtick_12">
      <g
         id="line2d_15">
        <path
           d="m 354.45139,187.99216 3.48472,1.11952"
           style="fill:none;stroke:#000000;stroke-width:0.8;stroke-linecap:square"
           id="path73110" />
      </g>
      <g
         id="text_15">
        <!-- −0.8 -->
        <g
           transform="matrix(0.1,0,0,-0.1,362.38807,194.0784)"
           id="g73124">
          <defs
             id="defs73114">
            <path
               id="DejaVuSans-38"
               d="m 2034,2216 q -450,0 -708,-241 -257,-241 -257,-662 0,-422 257,-663 258,-241 708,-241 450,0 709,242 260,243 260,662 0,421 -258,662 -257,241 -711,241 z m -631,268 q -406,100 -633,378 -226,279 -226,679 0,559 398,884 399,325 1092,325 697,0 1094,-325 397,-325 397,-884 0,-400 -227,-679 -226,-278 -629,-378 456,-106 710,-416 255,-309 255,-755 Q 3634,634 3220,271 2806,-91 2034,-91 1263,-91 848,271 434,634 434,1313 q 0,446 256,755 257,310 713,416 z m -231,997 q 0,-362 226,-565 227,-203 636,-203 407,0 636,203 230,203 230,565 0,363 -230,566 -229,203 -636,203 -409,0 -636,-203 -226,-203 -226,-566 z"
               transform="scale(0.015625)" />
          </defs>
          <use
             xlink:href="#DejaVuSans-2212"
             id="use73116"
             x="0"
             y="0"
             width="100%"
             height="100%" />
          <use
             xlink:href="#DejaVuSans-30"
             x="83.789062"
             id="use73118"
             y="0"
             width="100%"
             height="100%" />
          <use
             xlink:href="#DejaVuSans-2e"
             x="147.41211"
             id="use73120"
             y="0"
             width="100%"
             height="100%" />
          <use
             xlink:href="#DejaVuSans-38"
             x="179.19922"
             id="use73122"
             y="0"
             width="100%"
             height="100%" />
        </g>
      </g>
    </g>
    <g
       id="xtick_13">
      <g
         id="line2d_16">
        <path
           d="m 355.31168,168.93368 3.51207,1.1019"
           style="fill:none;stroke:#000000;stroke-width:0.8;stroke-linecap:square"
           id="path73128" />
      </g>
      <g
         id="text_16">
        <!-- −0.6 -->
        <g
           transform="matrix(0.1,0,0,-0.1,363.39709,175.04375)"
           id="g73142">
          <defs
             id="defs73132">
            <path
               id="DejaVuSans-36"
               d="m 2113,2584 q -425,0 -674,-291 -248,-290 -248,-796 0,-503 248,-796 249,-292 674,-292 425,0 673,292 248,293 248,796 0,506 -248,796 -248,291 -673,291 z m 1253,1979 v -575 q -238,112 -480,171 -242,60 -480,60 -625,0 -955,-422 -329,-422 -376,-1275 184,272 462,417 279,145 613,145 703,0 1111,-427 408,-426 408,-1160 0,-719 -425,-1154 -425,-434 -1131,-434 -810,0 -1238,620 -428,621 -428,1799 0,1106 525,1764 525,658 1409,658 238,0 480,-47 242,-47 505,-140 z"
               transform="scale(0.015625)" />
          </defs>
          <use
             xlink:href="#DejaVuSans-2212"
             id="use73134"
             x="0"
             y="0"
             width="100%"
             height="100%" />
          <use
             xlink:href="#DejaVuSans-30"
             x="83.789062"
             id="use73136"
             y="0"
             width="100%"
             height="100%" />
          <use
             xlink:href="#DejaVuSans-2e"
             x="147.41211"
             id="use73138"
             y="0"
             width="100%"
             height="100%" />
          <use
             xlink:href="#DejaVuSans-36"
             x="179.19922"
             id="use73140"
             y="0"
             width="100%"
             height="100%" />
        </g>
      </g>
    </g>
    <g
       id="xtick_14">
      <g
         id="line2d_17">
        <path
           d="m 356.18497,149.58714 3.53985,1.08362"
           style="fill:none;stroke:#000000;stroke-width:0.8;stroke-linecap:square"
           id="path73146" />
      </g>
      <g
         id="text_17">
        <!-- −0.4 -->
        <g
           transform="matrix(0.1,0,0,-0.1,364.42133,155.72193)"
           id="g73160">
          <defs
             id="defs73150">
            <path
               id="DejaVuSans-34"
               d="M 2419,4116 825,1625 h 1594 z m -166,550 h 794 V 1625 h 666 V 1100 H 3047 V 0 H 2419 V 1100 H 313 v 609 z"
               transform="scale(0.015625)" />
          </defs>
          <use
             xlink:href="#DejaVuSans-2212"
             id="use73152"
             x="0"
             y="0"
             width="100%"
             height="100%" />
          <use
             xlink:href="#DejaVuSans-30"
             x="83.789062"
             id="use73154"
             y="0"
             width="100%"
             height="100%" />
          <use
             xlink:href="#DejaVuSans-2e"
             x="147.41211"
             id="use73156"
             y="0"
             width="100%"
             height="100%" />
          <use
             xlink:href="#DejaVuSans-34"
             x="179.19922"
             id="use73158"
             y="0"
             width="100%"
             height="100%" />
        </g>
      </g>
    </g>
    <g
       id="xtick_15">
      <g
         id="line2d_18">
        <path
           d="m 357.07156,129.94595 3.56807,1.06465"
           style="fill:none;stroke:#000000;stroke-width:0.8;stroke-linecap:square"
           id="path73164" />
      </g>
      <g
         id="text_18">
        <!-- −0.2 -->
        <g
           transform="matrix(0.1,0,0,-0.1,365.46115,136.1064)"
           id="g73178">
          <defs
             id="defs73168">
            <path
               id="DejaVuSans-32"
               d="M 1228,531 H 3431 V 0 H 469 v 531 q 359,372 979,998 621,627 780,809 303,340 423,576 121,236 121,464 0,372 -261,606 -261,235 -680,235 -297,0 -627,-103 -329,-103 -704,-313 v 638 q 381,153 712,231 332,78 607,78 725,0 1156,-363 431,-362 431,-968 0,-288 -108,-546 -107,-257 -392,-607 -78,-91 -497,-524 Q 1991,1309 1228,531 Z"
               transform="scale(0.015625)" />
          </defs>
          <use
             xlink:href="#DejaVuSans-2212"
             id="use73170"
             x="0"
             y="0"
             width="100%"
             height="100%" />
          <use
             xlink:href="#DejaVuSans-30"
             x="83.789062"
             id="use73172"
             y="0"
             width="100%"
             height="100%" />
          <use
             xlink:href="#DejaVuSans-2e"
             x="147.41211"
             id="use73174"
             y="0"
             width="100%"
             height="100%" />
          <use
             xlink:href="#DejaVuSans-32"
             x="179.19922"
             id="use73176"
             y="0"
             width="100%"
             height="100%" />
        </g>
      </g>
    </g>
    <g
       id="xtick_16">
      <g
         id="line2d_19">
        <path
           d="m 357.97176,110.00334 3.59675,1.04497"
           style="fill:none;stroke:#000000;stroke-width:0.8;stroke-linecap:square"
           id="path73182" />
      </g>
      <g
         id="text_19">
        <!-- 0.0 -->
        <g
           transform="matrix(0.1,0,0,-0.1,370.70673,116.1904)"
           id="g73191">
          <use
             xlink:href="#DejaVuSans-30"
             id="use73185"
             x="0"
             y="0"
             width="100%"
             height="100%" />
          <use
             xlink:href="#DejaVuSans-2e"
             x="63.623047"
             id="use73187"
             y="0"
             width="100%"
             height="100%" />
          <use
             xlink:href="#DejaVuSans-30"
             x="95.410156"
             id="use73189"
             y="0"
             width="100%"
             height="100%" />
        </g>
      </g>
    </g>
  </g>
  <g
     id="axes_1"
     transform="translate(-116.23356,-61.276501)">
    <g
       id="Path3DCollection_1">
      <defs
         id="defs73197">
        <path
           id="C0_0_695c4e35c3"
           d="m 0,2.236068 c 0.593012,0 1.161816,-0.235606 1.581139,-0.654929 C 2.000462,1.161816 2.236068,0.593012 2.236068,0 c 0,-0.593012 -0.235606,-1.161816 -0.654929,-1.581139 C 1.161816,-2.000462 0.593012,-2.236068 0,-2.236068 c -0.593012,0 -1.161816,0.235606 -1.581139,0.654929 C -2.000462,-1.161816 -2.236068,-0.593012 -2.236068,0 c 0,0.593012 0.235606,1.161816 0.654929,1.581139 C -1.161816,2.000462 -0.593012,2.236068 0,2.236068 Z" />
      </defs>
      <g
         clip-path="url(#p9a31a7d266)"
         id="g73201">
        <use
           xlink:href="#C0_0_695c4e35c3"
           x="208.90828"
           y="115.06222"
           style="fill-opacity:0.3;stroke:#000000;stroke-opacity:0.3"
           id="use73199"
           width="100%"
           height="100%" />
      </g>
      <g
         clip-path="url(#p9a31a7d266)"
         id="g73205">
        <use
           xlink:href="#C0_0_695c4e35c3"
           x="250.09486"
           y="84.167351"
           style="fill-opacity:0.389578;stroke:#000000;stroke-opacity:0.389578"
           id="use73203"
           width="100%"
           height="100%" />
      </g>
      <g
         clip-path="url(#p9a31a7d266)"
         id="g73209">
        <use
           xlink:href="#C0_0_695c4e35c3"
           x="245.5672"
           y="214.37523"
           style="fill-opacity:0.431157;stroke:#000000;stroke-opacity:0.431157"
           id="use73207"
           width="100%"
           height="100%" />
      </g>
      <g
         clip-path="url(#p9a31a7d266)"
         id="g73213">
        <use
           xlink:href="#C0_0_695c4e35c3"
           x="184.32327"
           y="98.1521"
           style="fill-opacity:0.513673;stroke:#000000;stroke-opacity:0.513673"
           id="use73211"
           width="100%"
           height="100%" />
      </g>
      <g
         clip-path="url(#p9a31a7d266)"
         id="g73217">
        <use
           xlink:href="#C0_0_695c4e35c3"
           x="312.01791"
           y="102.29621"
           style="fill-opacity:0.550446;stroke:#000000;stroke-opacity:0.550446"
           id="use73215"
           width="100%"
           height="100%" />
      </g>
      <g
         clip-path="url(#p9a31a7d266)"
         id="g73221">
        <use
           xlink:href="#C0_0_695c4e35c3"
           x="331.98749"
           y="153.27513"
           style="fill-opacity:0.620627;stroke:#000000;stroke-opacity:0.620627"
           id="use73219"
           width="100%"
           height="100%" />
      </g>
      <g
         clip-path="url(#p9a31a7d266)"
         id="g73225">
        <use
           xlink:href="#C0_0_695c4e35c3"
           x="176.88252"
           y="132.29785"
           style="fill-opacity:0.816667;stroke:#000000;stroke-opacity:0.816667"
           id="use73223"
           width="100%"
           height="100%" />
      </g>
      <g
         clip-path="url(#p9a31a7d266)"
         id="g73229">
        <use
           xlink:href="#C0_0_695c4e35c3"
           x="310.49158"
           y="136.83655"
           style="fill-opacity:0.856941;stroke:#000000;stroke-opacity:0.856941"
           id="use73227"
           width="100%"
           height="100%" />
      </g>
      <g
         clip-path="url(#p9a31a7d266)"
         id="g73233">
        <use
           xlink:href="#C0_0_695c4e35c3"
           x="196.16748"
           y="185.69954"
           style="fill-opacity:0.892685;stroke:#000000;stroke-opacity:0.892685"
           id="use73231"
           width="100%"
           height="100%" />
      </g>
      <g
         clip-path="url(#p9a31a7d266)"
         id="g73237">
        <use
           xlink:href="#C0_0_695c4e35c3"
           x="241.07974"
           y="152.95845"
           style="stroke:#000000"
           id="use73235"
           width="100%"
           height="100%" />
      </g>
    </g>
    <g
       id="Poly3DCollection_1">
      <path
         d="m 208.90828,115.06222 41.18659,-30.894868 -65.7716,13.984744 z"
         clip-path="url(#p9a31a7d266)"
         style="fill:#8080ff"
         id="path73240" />
      <path
         d="m 312.01792,102.29622 -103.10964,12.766 41.18659,-30.894868 z"
         clip-path="url(#p9a31a7d266)"
         style="fill:#5e5ebc"
         id="path73242" />
      <path
         d="m 312.01792,102.29622 -103.10964,12.766 36.65893,99.31301 z"
         clip-path="url(#p9a31a7d266)"
         style="fill:#5e5ebc"
         id="path73244" />
      <path
         d="M 312.01792,102.29622 250.09487,84.167352 184.32327,98.152096 Z"
         clip-path="url(#p9a31a7d266)"
         style="fill:#7878ef"
         id="path73246" />
      <path
         d="m 176.88252,132.29786 32.02576,-17.23564 36.65893,99.31301 z"
         clip-path="url(#p9a31a7d266)"
         style="fill:#26264c"
         id="path73248" />
      <path
         d="m 312.01792,102.29622 19.96958,50.9789 -86.42029,61.10011 z"
         clip-path="url(#p9a31a7d266)"
         style="fill:#5e5ebc"
         id="path73250" />
      <path
         d="M 176.88252,132.29786 208.90828,115.06222 184.32327,98.152096 Z"
         clip-path="url(#p9a31a7d266)"
         style="fill:#26264c"
         id="path73252" />
      <path
         d="m 312.01792,102.29622 -135.1354,30.00164 7.44075,-34.145764 z"
         clip-path="url(#p9a31a7d266)"
         style="fill:#7878ef"
         id="path73254" />
      <path
         d="m 331.9875,153.27512 -86.42029,61.10011 -49.39974,-28.67569 z"
         clip-path="url(#p9a31a7d266)"
         style="fill:#26264d"
         id="path73256" />
      <path
         d="m 312.01792,102.29622 19.96958,50.9789 -21.49593,-16.43858 z"
         clip-path="url(#p9a31a7d266)"
         style="fill:#8080ff"
         id="path73258" />
      <path
         d="m 176.88252,132.29786 68.68469,82.07737 -49.39974,-28.67569 z"
         clip-path="url(#p9a31a7d266)"
         style="fill:#26264c"
         id="path73260" />
      <path
         d="m 312.01792,102.29622 -135.1354,30.00164 64.19722,20.66059 z"
         clip-path="url(#p9a31a7d266)"
         style="fill:#7878ef"
         id="path73262" />
      <path
         d="m 312.01792,102.29622 -70.93818,50.66223 69.41183,-16.12191 z"
         clip-path="url(#p9a31a7d266)"
         style="fill:#7878ef"
         id="path73264" />
      <path
         d="m 331.9875,153.27512 -90.90776,-0.31667 69.41183,-16.12191 z"
         clip-path="url(#p9a31a7d266)"
         style="fill:#26264d"
         id="path73266" />
      <path
         d="m 331.9875,153.27512 -90.90776,-0.31667 -44.91227,32.74109 z"
         clip-path="url(#p9a31a7d266)"
         style="fill:#26264d"
         id="path73268" />
      <path
         d="m 176.88252,132.29786 64.19722,20.66059 -44.91227,32.74109 z"
         clip-path="url(#p9a31a7d266)"
         style="fill:#48488f"
         id="path73270" />
    </g>
  </g>
  <defs
     id="defs73278">
    <clipPath
       id="p9a31a7d266">
      <rect
         x="103.104"
         y="41.472"
         width="266.112"
         height="266.112"
         id="rect73275" />
    </clipPath>
  </defs>
  <path
     style="opacity:0.156143;fill:url(#pattern75513);fill-opacity:1;stroke:none;stroke-width:0.75px;stroke-linecap:butt;stroke-linejoin:miter;stroke-opacity:1"
     d="m 68.089705,36.875594 65.771605,-13.98474 61.92305,18.128855 -1.52635,34.54034 -69.41183,16.1219 -64.197225,-20.66059 z"
     id="path73374" />
  <path
     style="opacity:1;fill:#d45387;fill-opacity:0.523293;stroke:#000000;stroke-width:1.05;stroke-linecap:butt;stroke-linejoin:miter;stroke-miterlimit:4;stroke-dasharray:none;stroke-opacity:1"
     d="m 68.089705,36.875598 65.771605,-13.984743 61.92305,18.128854 -1.52635,34.54034 -69.41183,16.1219 -64.197225,-20.66059 z"
     id="path73374-0" />
  <path
     style="fill:none;stroke:#000000;stroke-width:0.75px;stroke-linecap:butt;stroke-linejoin:miter;stroke-opacity:1"
     d="M 60.648955,71.021359 79.933905,124.42304 124.84618,91.681949"
     id="path73489" />
  <path
     style="fill:none;stroke:#000000;stroke-width:0.75px;stroke-linecap:butt;stroke-linejoin:miter;stroke-opacity:1"
     d="m 79.933905,124.42304 49.399735,28.67569 86.4203,-61.100111 -21.49593,-16.43857"
     id="path73491" />
  <path
     style="fill:none;stroke:#000000;stroke-width:0.75px;stroke-linecap:butt;stroke-linejoin:miter;stroke-opacity:1"
     d="M 215.75394,91.998619 195.78436,41.019709"
     id="path73493" />
  <text
     xml:space="preserve"
     style="font-style:normal;font-weight:normal;font-size:12.5672px;line-height:1.25;font-family:sans-serif;fill:#000000;fill-opacity:1;stroke:none;stroke-width:0.31418;stroke-linecap:butt;stroke-linejoin:round"
     x="55.064236"
     y="233.01323"
     id="text2564"><tspan
       sodipodi:role="line"
       id="tspan2562"
       style="font-style:normal;font-variant:normal;font-weight:normal;font-stretch:normal;font-size:12.5672px;font-family:'Abyssinica SIL';-inkscape-font-specification:'Abyssinica SIL, Normal';font-variant-ligatures:normal;font-variant-caps:normal;font-variant-numeric:normal;font-variant-east-asian:normal;stroke-width:0.31418"
       x="55.064236"
       y="233.01323">.</tspan></text>
  <text
     xml:space="preserve"
     style="font-style:normal;font-weight:normal;font-size:12.5672px;line-height:1.25;font-family:sans-serif;fill:#000000;fill-opacity:1;stroke:none;stroke-width:0.31418;stroke-linecap:butt;stroke-linejoin:round"
     x="219.64371"
     y="214.98602"
     id="text2564-7"><tspan
       sodipodi:role="line"
       id="tspan2562-5"
       style="font-style:normal;font-variant:normal;font-weight:normal;font-stretch:normal;font-size:12.5672px;font-family:'Abyssinica SIL';-inkscape-font-specification:'Abyssinica SIL, Normal';font-variant-ligatures:normal;font-variant-caps:normal;font-variant-numeric:normal;font-variant-east-asian:normal;stroke-width:0.31418"
       x="219.64371"
       y="214.98602">.</tspan></text>
  <text
     xml:space="preserve"
     style="font-style:normal;font-weight:normal;font-size:12.5672px;line-height:1.25;font-family:sans-serif;fill:#000000;fill-opacity:1;stroke:none;stroke-width:0.31418;stroke-linecap:butt;stroke-linejoin:round"
     x="274.27383"
     y="93.721092"
     id="text2564-6"><tspan
       sodipodi:role="line"
       id="tspan2562-9"
       style="font-style:normal;font-variant:normal;font-weight:normal;font-stretch:normal;font-size:12.5672px;font-family:'Abyssinica SIL';-inkscape-font-specification:'Abyssinica SIL, Normal';font-variant-ligatures:normal;font-variant-caps:normal;font-variant-numeric:normal;font-variant-east-asian:normal;stroke-width:0.31418"
       x="274.27383"
       y="93.721092">.</tspan></text>
</svg>
