<?xml version="1.0" encoding="UTF-8" standalone="no"?>
<svg
   width="286.61469pt"
   height="206.19601pt"
   viewBox="0 0 286.61469 206.19601"
   version="1.1"
   id="svg68051"
   sodipodi:docname="holo_cube.svg"
   inkscape:version="1.1.2 (0a00cf5339, 2022-02-04)"
   xmlns:inkscape="http://www.inkscape.org/namespaces/inkscape"
   xmlns:sodipodi="http://sodipodi.sourceforge.net/DTD/sodipodi-0.dtd"
   xmlns:xlink="http://www.w3.org/1999/xlink"
   xmlns="http://www.w3.org/2000/svg"
   xmlns:svg="http://www.w3.org/2000/svg"
   xmlns:rdf="http://www.w3.org/1999/02/22-rdf-syntax-ns#"
   xmlns:cc="http://creativecommons.org/ns#"
   xmlns:dc="http://purl.org/dc/elements/1.1/">
  <sodipodi:namedview
     id="namedview68053"
     pagecolor="#ffffff"
     bordercolor="#666666"
     borderopacity="1.0"
     inkscape:pageshadow="2"
     inkscape:pageopacity="0.0"
     inkscape:pagecheckerboard="0"
     inkscape:document-units="pt"
     showgrid="false"
     fit-margin-top="0"
     fit-margin-left="0"
     fit-margin-right="0"
     fit-margin-bottom="0"
     inkscape:zoom="1.0465426"
     inkscape:cx="115.14104"
     inkscape:cy="103.19695"
     inkscape:window-width="1920"
     inkscape:window-height="1038"
     inkscape:window-x="0"
     inkscape:window-y="25"
     inkscape:window-maximized="1"
     inkscape:current-layer="svg68051" />
  <metadata
     id="metadata67663">
    <rdf:RDF>
      <cc:Work>
        <dc:type
           rdf:resource="http://purl.org/dc/dcmitype/StillImage" />
        <dc:date>2022-11-01T00:38:46.888304</dc:date>
        <dc:format>image/svg+xml</dc:format>
        <dc:creator>
          <cc:Agent>
            <dc:title>Matplotlib v3.5.1, https://matplotlib.org/</dc:title>
          </cc:Agent>
        </dc:creator>
      </cc:Work>
    </rdf:RDF>
  </metadata>
  <defs
     id="defs67667">
    <style
       type="text/css"
       id="style67665">*{stroke-linejoin: round; stroke-linecap: butt}</style>
  </defs>
  <g
     id="pane3d_1"
     transform="translate(-115.61367,-83.21441)">
    <g
       id="patch_3">
      <path
         d="M 120.1698,238.45202 220.86724,199.32492 220.45699,83.873305 117.32215,112.80319"
         style="opacity:0.5;fill:#f2f2f2;stroke:#f2f2f2;stroke-linejoin:miter"
         id="path67675" />
    </g>
  </g>
  <g
     id="pane3d_2"
     transform="translate(-115.61367,-83.21441)">
    <g
       id="patch_4">
      <path
         d="M 220.86724,199.32492 356.11372,226.17569 358.80794,103.71353 220.45699,83.873305"
         style="opacity:0.5;fill:#e6e6e6;stroke:#e6e6e6;stroke-linejoin:miter"
         id="path67679" />
    </g>
  </g>
  <g
     id="pane3d_3"
     transform="translate(-115.61367,-83.21441)">
    <g
       id="patch_5">
      <path
         d="m 120.1698,238.45202 141.72364,32.34169 94.22028,-44.61802 -135.24648,-26.85077"
         style="opacity:0.5;fill:#ececec;stroke:#ececec;stroke-linejoin:miter"
         id="path67683" />
    </g>
  </g>
  <g
     id="axis3d_1"
     transform="translate(-115.61367,-83.21441)">
    <g
       id="line2d_1">
      <path
         d="m 120.1698,238.45202 141.72364,32.34169"
         style="fill:none;stroke:#000000;stroke-width:0.8;stroke-linecap:square"
         id="path67687" />
    </g>
    <g
       id="text_1">
      <!-- x -->
      <g
         transform="matrix(0.1,0,0,-0.1,166.25028,288.33445)"
         id="g67695">
        <defs
           id="defs67691">
          <path
             id="DejaVuSans-78"
             d="M 3513,3500 2247,1797 3578,0 H 2900 L 1881,1375 863,0 H 184 L 1544,1831 300,3500 h 678 l 928,-1247 928,1247 z"
             transform="scale(0.015625)" />
        </defs>
        <use
           xlink:href="#DejaVuSans-78"
           id="use67693"
           x="0"
           y="0"
           width="100%"
           height="100%" />
      </g>
    </g>
    <g
       id="Line3DCollection_1">
      <path
         d="m 135.6372,241.98172 100.07096,-39.7104 -0.0885,-116.223619"
         style="fill:none;stroke:#b0b0b0;stroke-width:0.8"
         id="path67698" />
      <path
         d="M 161.77295,247.94597 260.74037,207.24102 261.205,89.716775"
         style="fill:none;stroke:#b0b0b0;stroke-width:0.8"
         id="path67700" />
      <path
         d="m 188.59804,254.06752 97.77617,-41.73736 1.0449,-118.85415"
         style="fill:none;stroke:#b0b0b0;stroke-width:0.8"
         id="path67702" />
      <path
         d="M 216.1401,260.35268 312.63165,217.5431 314.28539,97.328771"
         style="fill:none;stroke:#b0b0b0;stroke-width:0.8"
         id="path67704" />
      <path
         d="m 244.42826,266.80811 95.10745,-43.92369 2.29278,-121.60583"
         style="fill:none;stroke:#b0b0b0;stroke-width:0.8"
         id="path67706" />
    </g>
    <g
       id="xtick_1">
      <g
         id="line2d_2">
        <path
           d="m 136.51306,241.63416 -2.63158,1.04427"
           style="fill:none;stroke:#000000;stroke-width:0.8;stroke-linecap:square"
           id="path67709" />
      </g>
      <g
         id="text_2">
        <!-- −1.0 -->
        <g
           transform="matrix(0.1,0,0,-0.1,114.5543,263.52544)"
           id="g67726">
          <defs
             id="defs67716">
            <path
               id="DejaVuSans-2212"
               d="M 678,2272 H 4684 V 1741 H 678 Z"
               transform="scale(0.015625)" />
            <path
               id="DejaVuSans-31"
               d="M 794,531 H 1825 V 4091 L 703,3866 v 575 l 1116,225 h 631 V 531 H 3481 V 0 H 794 Z"
               transform="scale(0.015625)" />
            <path
               id="DejaVuSans-2e"
               d="m 684,794 h 660 V 0 H 684 Z"
               transform="scale(0.015625)" />
            <path
               id="DejaVuSans-30"
               d="m 2034,4250 q -487,0 -733,-480 -245,-479 -245,-1442 0,-959 245,-1439 246,-480 733,-480 491,0 736,480 246,480 246,1439 0,963 -246,1442 -245,480 -736,480 z m 0,500 q 785,0 1199,-621 414,-620 414,-1801 0,-1178 -414,-1799 -414,-620 -1199,-620 -784,0 -1198,620 -414,621 -414,1799 0,1181 414,1801 414,621 1198,621 z"
               transform="scale(0.015625)" />
          </defs>
          <use
             xlink:href="#DejaVuSans-2212"
             id="use67718"
             x="0"
             y="0"
             width="100%"
             height="100%" />
          <use
             xlink:href="#DejaVuSans-31"
             x="83.789062"
             id="use67720"
             y="0"
             width="100%"
             height="100%" />
          <use
             xlink:href="#DejaVuSans-2e"
             x="147.41211"
             id="use67722"
             y="0"
             width="100%"
             height="100%" />
          <use
             xlink:href="#DejaVuSans-30"
             x="179.19922"
             id="use67724"
             y="0"
             width="100%"
             height="100%" />
        </g>
      </g>
    </g>
    <g
       id="xtick_2">
      <g
         id="line2d_3">
        <path
           d="m 162.64013,247.5893 -2.60553,1.07164"
           style="fill:none;stroke:#000000;stroke-width:0.8;stroke-linecap:square"
           id="path67730" />
      </g>
      <g
         id="text_3">
        <!-- −0.5 -->
        <g
           transform="matrix(0.1,0,0,-0.1,140.73087,269.70832)"
           id="g67744">
          <defs
             id="defs67734">
            <path
               id="DejaVuSans-35"
               d="M 691,4666 H 3169 V 4134 H 1269 V 2991 q 137,47 274,70 138,23 276,23 781,0 1237,-428 457,-428 457,-1159 Q 3513,744 3044,326 2575,-91 1722,-91 1428,-91 1123,-41 819,9 494,109 v 635 q 281,-153 581,-228 300,-75 634,-75 541,0 856,284 316,284 316,772 0,487 -316,771 -315,285 -856,285 -253,0 -505,-56 -251,-56 -513,-175 z"
               transform="scale(0.015625)" />
          </defs>
          <use
             xlink:href="#DejaVuSans-2212"
             id="use67736"
             x="0"
             y="0"
             width="100%"
             height="100%" />
          <use
             xlink:href="#DejaVuSans-30"
             x="83.789062"
             id="use67738"
             y="0"
             width="100%"
             height="100%" />
          <use
             xlink:href="#DejaVuSans-2e"
             x="147.41211"
             id="use67740"
             y="0"
             width="100%"
             height="100%" />
          <use
             xlink:href="#DejaVuSans-35"
             x="179.19922"
             id="use67742"
             y="0"
             width="100%"
             height="100%" />
        </g>
      </g>
    </g>
    <g
       id="xtick_3">
      <g
         id="line2d_4">
        <path
           d="m 189.45576,253.70139 -2.57717,1.1001"
           style="fill:none;stroke:#000000;stroke-width:0.8;stroke-linecap:square"
           id="path67748" />
      </g>
      <g
         id="text_4">
        <!-- 0.0 -->
        <g
           transform="matrix(0.1,0,0,-0.1,171.79191,276.05528)"
           id="g67757">
          <use
             xlink:href="#DejaVuSans-30"
             id="use67751"
             x="0"
             y="0"
             width="100%"
             height="100%" />
          <use
             xlink:href="#DejaVuSans-2e"
             x="63.623047"
             id="use67753"
             y="0"
             width="100%"
             height="100%" />
          <use
             xlink:href="#DejaVuSans-30"
             x="95.410156"
             id="use67755"
             y="0"
             width="100%"
             height="100%" />
        </g>
      </g>
    </g>
    <g
       id="xtick_4">
      <g
         id="line2d_5">
        <path
           d="m 216.98754,259.9767 -2.54635,1.12972"
           style="fill:none;stroke:#000000;stroke-width:0.8;stroke-linecap:square"
           id="path67761" />
      </g>
      <g
         id="text_5">
        <!-- 0.5 -->
        <g
           transform="matrix(0.1,0,0,-0.1,199.38577,282.57292)"
           id="g67770">
          <use
             xlink:href="#DejaVuSans-30"
             id="use67764"
             x="0"
             y="0"
             width="100%"
             height="100%" />
          <use
             xlink:href="#DejaVuSans-2e"
             x="63.623047"
             id="use67766"
             y="0"
             width="100%"
             height="100%" />
          <use
             xlink:href="#DejaVuSans-35"
             x="95.410156"
             id="use67768"
             y="0"
             width="100%"
             height="100%" />
        </g>
      </g>
    </g>
    <g
       id="xtick_5">
      <g
         id="line2d_6">
        <path
           d="m 245.26455,266.42188 -2.5129,1.16054"
           style="fill:none;stroke:#000000;stroke-width:0.8;stroke-linecap:square"
           id="path67774" />
      </g>
      <g
         id="text_6">
        <!-- 1.0 -->
        <g
           transform="matrix(0.1,0,0,-0.1,227.73184,289.26824)"
           id="g67783">
          <use
             xlink:href="#DejaVuSans-31"
             id="use67777"
             x="0"
             y="0"
             width="100%"
             height="100%" />
          <use
             xlink:href="#DejaVuSans-2e"
             x="63.623047"
             id="use67779"
             y="0"
             width="100%"
             height="100%" />
          <use
             xlink:href="#DejaVuSans-30"
             x="95.410156"
             id="use67781"
             y="0"
             width="100%"
             height="100%" />
        </g>
      </g>
    </g>
  </g>
  <g
     id="axis3d_2"
     transform="translate(-115.61367,-83.21441)">
    <g
       id="line2d_7">
      <path
         d="m 356.11372,226.17569 -94.22028,44.61802"
         style="fill:none;stroke:#000000;stroke-width:0.8;stroke-linecap:square"
         id="path67788" />
    </g>
    <g
       id="text_7">
      <!-- y -->
      <g
         transform="matrix(0.1,0,0,-0.1,334.88095,278.59652)"
         id="g67796">
        <defs
           id="defs67792">
          <path
             id="DejaVuSans-79"
             d="m 2059,-325 q -243,-625 -475,-815 -231,-191 -618,-191 H 506 v 481 h 338 q 237,0 368,113 132,112 291,531 L 1606,56 191,3500 H 800 L 1894,763 2988,3500 h 609 z"
             transform="scale(0.015625)" />
        </defs>
        <use
           xlink:href="#DejaVuSans-79"
           id="use67794"
           x="0"
           y="0"
           width="100%"
           height="100%" />
      </g>
    </g>
    <g
       id="Line3DCollection_2">
      <path
         d="m 130.29398,109.16452 2.51843,124.37508 140.97369,31.62233"
         style="fill:none;stroke:#b0b0b0;stroke-width:0.8"
         id="path67799" />
      <path
         d="m 151.14551,103.31556 2.00288,122.32227 139.72912,30.48337"
         style="fill:none;stroke:#b0b0b0;stroke-width:0.8"
         id="path67801" />
      <path
         d="m 171.2607,97.673133 1.52149,120.335767 138.48287,29.40487"
         style="fill:none;stroke:#b0b0b0;stroke-width:0.8"
         id="path67803" />
      <path
         d="m 190.67788,92.226508 1.07167,118.412412 137.23744,28.38263"
         style="fill:none;stroke:#b0b0b0;stroke-width:0.8"
         id="path67805" />
      <path
         d="m 209.43276,86.965663 0.65109,116.549267 135.99494,27.4128"
         style="fill:none;stroke:#b0b0b0;stroke-width:0.8"
         id="path67807" />
    </g>
    <g
       id="xtick_6">
      <g
         id="line2d_8">
        <path
           d="m 272.5797,264.89132 3.62328,0.81275"
           style="fill:none;stroke:#000000;stroke-width:0.8;stroke-linecap:square"
           id="path67810" />
      </g>
      <g
         id="text_8">
        <!-- −1.0 -->
        <g
           transform="matrix(0.1,0,0,-0.1,274.14185,286.34664)"
           id="g67821">
          <use
             xlink:href="#DejaVuSans-2212"
             id="use67813"
             x="0"
             y="0"
             width="100%"
             height="100%" />
          <use
             xlink:href="#DejaVuSans-31"
             x="83.789062"
             id="use67815"
             y="0"
             width="100%"
             height="100%" />
          <use
             xlink:href="#DejaVuSans-2e"
             x="147.41211"
             id="use67817"
             y="0"
             width="100%"
             height="100%" />
          <use
             xlink:href="#DejaVuSans-30"
             x="179.19922"
             id="use67819"
             y="0"
             width="100%"
             height="100%" />
        </g>
      </g>
    </g>
    <g
       id="xtick_7">
      <g
         id="line2d_9">
        <path
           d="m 291.68322,255.86065 3.58682,0.7825"
           style="fill:none;stroke:#000000;stroke-width:0.8;stroke-linecap:square"
           id="path67825" />
      </g>
      <g
         id="text_9">
        <!-- −0.5 -->
        <g
           transform="matrix(0.1,0,0,-0.1,293.06894,277.01606)"
           id="g67836">
          <use
             xlink:href="#DejaVuSans-2212"
             id="use67828"
             x="0"
             y="0"
             width="100%"
             height="100%" />
          <use
             xlink:href="#DejaVuSans-30"
             x="83.789062"
             id="use67830"
             y="0"
             width="100%"
             height="100%" />
          <use
             xlink:href="#DejaVuSans-2e"
             x="147.41211"
             id="use67832"
             y="0"
             width="100%"
             height="100%" />
          <use
             xlink:href="#DejaVuSans-35"
             x="179.19922"
             id="use67834"
             y="0"
             width="100%"
             height="100%" />
        </g>
      </g>
    </g>
    <g
       id="xtick_8">
      <g
         id="line2d_10">
        <path
           d="m 310.08282,247.16274 3.55057,0.75391"
           style="fill:none;stroke:#000000;stroke-width:0.8;stroke-linecap:square"
           id="path67840" />
      </g>
      <g
         id="text_10">
        <!-- 0.0 -->
        <g
           transform="matrix(0.1,0,0,-0.1,315.48554,268.03073)"
           id="g67849">
          <use
             xlink:href="#DejaVuSans-30"
             id="use67843"
             x="0"
             y="0"
             width="100%"
             height="100%" />
          <use
             xlink:href="#DejaVuSans-2e"
             x="63.623047"
             id="use67845"
             y="0"
             width="100%"
             height="100%" />
          <use
             xlink:href="#DejaVuSans-30"
             x="95.410156"
             id="use67847"
             y="0"
             width="100%"
             height="100%" />
        </g>
      </g>
    </g>
    <g
       id="xtick_9">
      <g
         id="line2d_11">
        <path
           d="m 327.81671,238.77952 3.51456,0.72686"
           style="fill:none;stroke:#000000;stroke-width:0.8;stroke-linecap:square"
           id="path67853" />
      </g>
      <g
         id="text_11">
        <!-- 0.5 -->
        <g
           transform="matrix(0.1,0,0,-0.1,333.05011,259.37183)"
           id="g67862">
          <use
             xlink:href="#DejaVuSans-30"
             id="use67856"
             x="0"
             y="0"
             width="100%"
             height="100%" />
          <use
             xlink:href="#DejaVuSans-2e"
             x="63.623047"
             id="use67858"
             y="0"
             width="100%"
             height="100%" />
          <use
             xlink:href="#DejaVuSans-35"
             x="95.410156"
             id="use67860"
             y="0"
             width="100%"
             height="100%" />
        </g>
      </g>
    </g>
    <g
       id="xtick_10">
      <g
         id="line2d_12">
        <path
           d="m 344.92038,230.69423 3.47885,0.70123"
           style="fill:none;stroke:#000000;stroke-width:0.8;stroke-linecap:square"
           id="path67866" />
      </g>
      <g
         id="text_12">
        <!-- 1.0 -->
        <g
           transform="matrix(0.1,0,0,-0.1,349.98795,251.02191)"
           id="g67875">
          <use
             xlink:href="#DejaVuSans-31"
             id="use67869"
             x="0"
             y="0"
             width="100%"
             height="100%" />
          <use
             xlink:href="#DejaVuSans-2e"
             x="63.623047"
             id="use67871"
             y="0"
             width="100%"
             height="100%" />
          <use
             xlink:href="#DejaVuSans-30"
             x="95.410156"
             id="use67873"
             y="0"
             width="100%"
             height="100%" />
        </g>
      </g>
    </g>
  </g>
  <g
     id="axis3d_3"
     transform="translate(-115.61367,-83.21441)">
    <g
       id="line2d_13">
      <path
         d="m 356.11372,226.17569 2.69422,-122.46216"
         style="fill:none;stroke:#000000;stroke-width:0.8;stroke-linecap:square"
         id="path67880" />
    </g>
    <g
       id="text_13">
      <!-- theta -->
      <g
         transform="matrix(0.00219952,-0.09997581,-0.09997581,-0.00219952,401.58463,177.06072)"
         id="g67899">
        <defs
           id="defs67887">
          <path
             id="DejaVuSans-74"
             d="M 1172,4494 V 3500 H 2356 V 3053 H 1172 V 1153 q 0,-428 117,-550 117,-122 477,-122 h 590 V 0 H 1766 Q 1100,0 847,248 594,497 594,1153 V 3053 H 172 v 447 h 422 v 994 z"
             transform="scale(0.015625)" />
          <path
             id="DejaVuSans-68"
             d="M 3513,2113 V 0 h -575 v 2094 q 0,497 -194,743 -194,247 -581,247 -466,0 -735,-297 -269,-296 -269,-809 V 0 H 581 v 4863 h 578 V 2956 q 207,316 486,472 280,156 646,156 603,0 912,-373 310,-373 310,-1098 z"
             transform="scale(0.015625)" />
          <path
             id="DejaVuSans-65"
             d="M 3597,1894 V 1613 H 953 q 38,-594 358,-905 320,-311 892,-311 331,0 642,81 311,81 618,244 V 178 Q 3153,47 2828,-22 2503,-91 2169,-91 1331,-91 842,396 353,884 353,1716 q 0,859 464,1363 464,505 1252,505 706,0 1117,-455 411,-454 411,-1235 z m -575,169 q -6,471 -264,752 -258,282 -683,282 -481,0 -770,-272 -289,-272 -333,-766 z"
             transform="scale(0.015625)" />
          <path
             id="DejaVuSans-61"
             d="m 2194,1759 q -697,0 -966,-159 -269,-159 -269,-544 0,-306 202,-486 202,-179 548,-179 479,0 768,339 289,339 289,901 v 128 z m 1147,238 V 0 H 2766 V 531 Q 2569,213 2275,61 1981,-91 1556,-91 q -537,0 -855,302 -317,302 -317,808 0,590 395,890 396,300 1180,300 h 807 v 57 q 0,397 -261,614 -261,217 -733,217 -300,0 -585,-72 -284,-72 -546,-216 v 532 q 315,122 612,182 297,61 578,61 760,0 1135,-394 375,-393 375,-1193 z"
             transform="scale(0.015625)" />
        </defs>
        <use
           xlink:href="#DejaVuSans-74"
           id="use67889"
           x="0"
           y="0"
           width="100%"
           height="100%" />
        <use
           xlink:href="#DejaVuSans-68"
           x="39.208984"
           id="use67891"
           y="0"
           width="100%"
           height="100%" />
        <use
           xlink:href="#DejaVuSans-65"
           x="102.58789"
           id="use67893"
           y="0"
           width="100%"
           height="100%" />
        <use
           xlink:href="#DejaVuSans-74"
           x="164.11133"
           id="use67895"
           y="0"
           width="100%"
           height="100%" />
        <use
           xlink:href="#DejaVuSans-61"
           x="203.32031"
           id="use67897"
           y="0"
           width="100%"
           height="100%" />
      </g>
    </g>
    <g
       id="Line3DCollection_3">
      <path
         d="M 356.41998,212.25502 220.82055,186.18482 119.84628,224.17725"
         style="fill:none;stroke:#b0b0b0;stroke-width:0.8"
         id="path67902" />
      <path
         d="m 356.93045,189.05217 -136.1877,-24.75982 -101.43581,36.0872"
         style="fill:none;stroke:#b0b0b0;stroke-width:0.8"
         id="path67904" />
      <path
         d="M 357.44541,165.64539 220.66432,142.21925 118.76273,176.36681"
         style="fill:none;stroke:#b0b0b0;stroke-width:0.8"
         id="path67906" />
      <path
         d="M 357.96492,142.03196 220.58523,119.96329 118.21358,152.13609"
         style="fill:none;stroke:#b0b0b0;stroke-width:0.8"
         id="path67908" />
      <path
         d="M 358.48903,118.20913 220.50549,97.522174 117.65941,127.68443"
         style="fill:none;stroke:#b0b0b0;stroke-width:0.8"
         id="path67910" />
    </g>
    <g
       id="xtick_11">
      <g
         id="line2d_14">
        <path
           d="m 355.26551,212.03306 3.467,0.66656"
           style="fill:none;stroke:#000000;stroke-width:0.8;stroke-linecap:square"
           id="path67913" />
      </g>
      <g
         id="text_14">
        <!-- −1.0 -->
        <g
           transform="matrix(0.1,0,0,-0.1,363.33354,218.89317)"
           id="g67924">
          <use
             xlink:href="#DejaVuSans-2212"
             id="use67916"
             x="0"
             y="0"
             width="100%"
             height="100%" />
          <use
             xlink:href="#DejaVuSans-31"
             x="83.789062"
             id="use67918"
             y="0"
             width="100%"
             height="100%" />
          <use
             xlink:href="#DejaVuSans-2e"
             x="147.41211"
             id="use67920"
             y="0"
             width="100%"
             height="100%" />
          <use
             xlink:href="#DejaVuSans-30"
             x="179.19922"
             id="use67922"
             y="0"
             width="100%"
             height="100%" />
        </g>
      </g>
    </g>
    <g
       id="xtick_12">
      <g
         id="line2d_15">
        <path
           d="m 355.77066,188.84132 3.48299,0.63323"
           style="fill:none;stroke:#000000;stroke-width:0.8;stroke-linecap:square"
           id="path67928" />
      </g>
      <g
         id="text_15">
        <!-- −0.5 -->
        <g
           transform="matrix(0.1,0,0,-0.1,363.92606,195.73836)"
           id="g67939">
          <use
             xlink:href="#DejaVuSans-2212"
             id="use67931"
             x="0"
             y="0"
             width="100%"
             height="100%" />
          <use
             xlink:href="#DejaVuSans-30"
             x="83.789062"
             id="use67933"
             y="0"
             width="100%"
             height="100%" />
          <use
             xlink:href="#DejaVuSans-2e"
             x="147.41211"
             id="use67935"
             y="0"
             width="100%"
             height="100%" />
          <use
             xlink:href="#DejaVuSans-35"
             x="179.19922"
             id="use67937"
             y="0"
             width="100%"
             height="100%" />
        </g>
      </g>
    </g>
    <g
       id="xtick_13">
      <g
         id="line2d_16">
        <path
           d="m 356.28026,165.44584 3.49911,0.59928"
           style="fill:none;stroke:#000000;stroke-width:0.8;stroke-linecap:square"
           id="path67943" />
      </g>
      <g
         id="text_16">
        <!-- 0.0 -->
        <g
           transform="matrix(0.1,0,0,-0.1,368.71361,172.38049)"
           id="g67952">
          <use
             xlink:href="#DejaVuSans-30"
             id="use67946"
             x="0"
             y="0"
             width="100%"
             height="100%" />
          <use
             xlink:href="#DejaVuSans-2e"
             x="63.623047"
             id="use67948"
             y="0"
             width="100%"
             height="100%" />
          <use
             xlink:href="#DejaVuSans-30"
             x="95.410156"
             id="use67950"
             y="0"
             width="100%"
             height="100%" />
        </g>
      </g>
    </g>
    <g
       id="xtick_14">
      <g
         id="line2d_17">
        <path
           d="m 356.79435,141.84392 3.51539,0.56471"
           style="fill:none;stroke:#000000;stroke-width:0.8;stroke-linecap:square"
           id="path67956" />
      </g>
      <g
         id="text_17">
        <!-- 0.5 -->
        <g
           transform="matrix(0.1,0,0,-0.1,369.31659,148.81688)"
           id="g67965">
          <use
             xlink:href="#DejaVuSans-30"
             id="use67959"
             x="0"
             y="0"
             width="100%"
             height="100%" />
          <use
             xlink:href="#DejaVuSans-2e"
             x="63.623047"
             id="use67961"
             y="0"
             width="100%"
             height="100%" />
          <use
             xlink:href="#DejaVuSans-35"
             x="95.410156"
             id="use67963"
             y="0"
             width="100%"
             height="100%" />
        </g>
      </g>
    </g>
    <g
       id="xtick_15">
      <g
         id="line2d_18">
        <path
           d="m 357.313,118.03282 3.53181,0.5295"
           style="fill:none;stroke:#000000;stroke-width:0.8;stroke-linecap:square"
           id="path67969" />
      </g>
      <g
         id="text_18">
        <!-- 1.0 -->
        <g
           transform="matrix(0.1,0,0,-0.1,369.92489,125.04478)"
           id="g67978">
          <use
             xlink:href="#DejaVuSans-31"
             id="use67972"
             x="0"
             y="0"
             width="100%"
             height="100%" />
          <use
             xlink:href="#DejaVuSans-2e"
             x="63.623047"
             id="use67974"
             y="0"
             width="100%"
             height="100%" />
          <use
             xlink:href="#DejaVuSans-30"
             x="95.410156"
             id="use67976"
             y="0"
             width="100%"
             height="100%" />
        </g>
      </g>
    </g>
  </g>
  <g
     id="axes_1"
     transform="translate(-115.61367,-83.21441)">
    <g
       id="Path3DCollection_1">
      <defs
         id="defs67984">
        <path
           id="C0_0_de0bdbbd49"
           d="m 0,2.236068 c 0.593012,0 1.161816,-0.235606 1.581139,-0.654929 C 2.000462,1.161816 2.236068,0.593012 2.236068,0 c 0,-0.593012 -0.235606,-1.161816 -0.654929,-1.581139 C 1.161816,-2.000462 0.593012,-2.236068 0,-2.236068 c -0.593012,0 -1.161816,0.235606 -1.581139,0.654929 C -2.000462,-1.161816 -2.236068,-0.593012 -2.236068,0 c 0,0.593012 0.235606,1.161816 0.654929,1.581139 C -1.161816,2.000462 -0.593012,2.236068 0,2.236068 Z" />
      </defs>
      <g
         clip-path="url(#pff0cc4720e)"
         id="g67988">
        <use
           xlink:href="#C0_0_de0bdbbd49"
           x="204.93652"
           y="166.37726"
           style="fill-opacity:0.3;stroke:#000000;stroke-opacity:0.3"
           id="use67986"
           width="100%"
           height="100%" />
      </g>
      <g
         clip-path="url(#pff0cc4720e)"
         id="g67992">
        <use
           xlink:href="#C0_0_de0bdbbd49"
           x="288.10724"
           y="137.92453"
           style="fill-opacity:0.363146;stroke:#000000;stroke-opacity:0.363146"
           id="use67990"
           width="100%"
           height="100%" />
      </g>
      <g
         clip-path="url(#pff0cc4720e)"
         id="g67996">
        <use
           xlink:href="#C0_0_de0bdbbd49"
           x="239.7561"
           y="218.13434"
           style="fill-opacity:0.575621;stroke:#000000;stroke-opacity:0.575621"
           id="use67994"
           width="100%"
           height="100%" />
      </g>
      <g
         clip-path="url(#pff0cc4720e)"
         id="g68000">
        <use
           xlink:href="#C0_0_de0bdbbd49"
           x="152.64516"
           y="153.03644"
           style="fill-opacity:0.615704;stroke:#000000;stroke-opacity:0.615704"
           id="use67998"
           width="100%"
           height="100%" />
      </g>
      <g
         clip-path="url(#pff0cc4720e)"
         id="g68004">
        <use
           xlink:href="#C0_0_de0bdbbd49"
           x="327.27896"
           y="188.91197"
           style="fill-opacity:0.644886;stroke:#000000;stroke-opacity:0.644886"
           id="use68002"
           width="100%"
           height="100%" />
      </g>
      <g
         clip-path="url(#pff0cc4720e)"
         id="g68008">
        <use
           xlink:href="#C0_0_de0bdbbd49"
           x="239.7561"
           y="122.88061"
           style="fill-opacity:0.685883;stroke:#000000;stroke-opacity:0.685883"
           id="use68006"
           width="100%"
           height="100%" />
      </g>
      <g
         clip-path="url(#pff0cc4720e)"
         id="g68012">
        <use
           xlink:href="#C0_0_de0bdbbd49"
           x="186.83479"
           y="207.05916"
           style="fill-opacity:0.922623;stroke:#000000;stroke-opacity:0.922623"
           id="use68010"
           width="100%"
           height="100%" />
      </g>
      <g
         clip-path="url(#pff0cc4720e)"
         id="g68016">
        <use
           xlink:href="#C0_0_de0bdbbd49"
           x="278.73792"
           y="176.03098"
           style="stroke:#000000"
           id="use68014"
           width="100%"
           height="100%" />
      </g>
    </g>
    <g
       id="Poly3DCollection_1">
      <path
         d="m 204.93653,166.37726 122.34243,22.53471 -39.17173,-50.98744 z"
         clip-path="url(#pff0cc4720e)"
         style="fill:#5e5ebc"
         id="path68019" />
      <path
         d="m 204.93653,166.37726 34.81958,-43.49665 48.35112,15.04392 z"
         clip-path="url(#pff0cc4720e)"
         style="fill:#7f7fff"
         id="path68021" />
      <path
         d="m 204.93653,166.37726 122.34243,22.53471 -87.52285,29.22237 z"
         clip-path="url(#pff0cc4720e)"
         style="fill:#5e5ebc"
         id="path68023" />
      <path
         d="m 204.93653,166.37726 34.81958,-43.49665 -87.11096,30.15582 z"
         clip-path="url(#pff0cc4720e)"
         style="fill:#7f7fff"
         id="path68025" />
      <path
         d="m 239.75611,122.88061 87.52285,66.03136 -39.17173,-50.98744 z"
         clip-path="url(#pff0cc4720e)"
         style="fill:#8080ff"
         id="path68027" />
      <path
         d="m 204.93653,166.37726 -18.10174,40.68189 52.92132,11.07519 z"
         clip-path="url(#pff0cc4720e)"
         style="fill:#26264c"
         id="path68029" />
      <path
         d="m 204.93653,166.37726 -18.10174,40.68189 -34.18964,-54.02272 z"
         clip-path="url(#pff0cc4720e)"
         style="fill:#26264c"
         id="path68031" />
      <path
         d="m 186.83479,207.05915 140.44417,-18.14718 -87.52285,29.22237 z"
         clip-path="url(#pff0cc4720e)"
         style="fill:#26264d"
         id="path68033" />
      <path
         d="m 186.83479,207.05915 52.92132,-84.17854 -87.11096,30.15582 z"
         clip-path="url(#pff0cc4720e)"
         style="fill:#48488f"
         id="path68035" />
      <path
         d="m 239.75611,122.88061 87.52285,66.03136 -48.54104,-12.881 z"
         clip-path="url(#pff0cc4720e)"
         style="fill:#8080ff"
         id="path68037" />
      <path
         d="m 186.83479,207.05915 140.44417,-18.14718 -48.54104,-12.881 z"
         clip-path="url(#pff0cc4720e)"
         style="fill:#26264d"
         id="path68039" />
      <path
         d="m 186.83479,207.05915 52.92132,-84.17854 38.98181,53.15036 z"
         clip-path="url(#pff0cc4720e)"
         style="fill:#48488f"
         id="path68041" />
    </g>
  </g>
  <defs
     id="defs68049">
    <clipPath
       id="pff0cc4720e">
      <rect
         x="103.104"
         y="41.472"
         width="266.112"
         height="266.112"
         id="rect68046" />
    </clipPath>
  </defs>
  <path
     style="fill:none;stroke:#000000;stroke-width:1.35;stroke-linecap:butt;stroke-linejoin:miter;stroke-miterlimit:4;stroke-dasharray:none;stroke-opacity:1"
     d="m 37.031475,69.82202 87.110965,-30.15582 48.35111,15.04392 39.17173,50.98744 -87.52285,29.22237 -52.921315,-11.07519 z"
     id="path68145" />
  <path
     style="fill:none;stroke:#000000;stroke-width:1.35;stroke-linecap:butt;stroke-linejoin:miter;stroke-miterlimit:4;stroke-dasharray:none;stroke-opacity:1"
     d="m 124.14244,39.6662 38.9818,53.15036 -91.903125,31.02818"
     id="path68147" />
  <path
     style="fill:none;stroke:#000000;stroke-width:1.35;stroke-linecap:butt;stroke-linejoin:miter;stroke-miterlimit:4;stroke-dasharray:none;stroke-opacity:1"
     d="m 163.12424,92.81656 48.54104,12.881"
     id="path68149" />
</svg>
